# xmcd CD database file
#
# Track frame offsets:
#	150
#	12185
#	28155
#	42557
#	56910
#	73792
#	86332
#	104872
#	123847
#	143660
#
# Disc length: 2144 seconds
#
# Revision: 2
# Processed by: cddbd v1.4PL0 Copyright (c) Steve Scherf et al.
# Submitted via: CDex 1.40Beta8
#
DISCID=8e085e0a
DTITLE=Mac Mcanally - Knots
DYEAR=1994
DGENRE=Country
TTITLE0=Down The Road
TTITLE1=No Sign Of Weakness
TTITLE2=Take It Easy (All I Know About Love)
TTITLE3=Good For Nothing
TTITLE4=Wide Open Spaces
TTITLE5=The Knot
TTITLE6=There I'll Be
TTITLE7=Ordinary Girl
TTITLE8=Something Of Myself
TTITLE9=Miracle
EXTD=YEAR: 1994 ID3G: 2
EXTT0=
EXTT1=
EXTT2=
EXTT3=
EXTT4=
EXTT5=
EXTT6=
EXTT7=
EXTT8=
EXTT9=
PLAYORDER=
